<svg width="200" height="200" viewBox="0 0 200 200" xmlns="http://www.w3.org/2000/svg">
  <defs>
    <!-- Dark gradient background like the reference -->
    <radialGradient id="darkGradient" cx="50%" cy="30%" r="70%">
      <stop offset="0%" style="stop-color:#4a4a4a;stop-opacity:1" />
      <stop offset="100%" style="stop-color:#2a2a2a;stop-opacity:1" />
    </radialGradient>
    
    <!-- Subtle inner shadow -->
    <filter id="innerShadow" x="-50%" y="-50%" width="200%" height="200%">
      <feOffset dx="0" dy="2"/>
      <feGaussianBlur stdDeviation="3" result="offset-blur"/>
      <feFlood flood-color="#000000" flood-opacity="0.3"/>
      <feComposite in2="offset-blur" operator="in"/>
    </filter>
    
    <!-- Outer glow for the R -->
    <filter id="glow" x="-20%" y="-20%" width="140%" height="140%">
      <feGaussianBlur stdDeviation="2" result="coloredBlur"/>
      <feMerge> 
        <feMergeNode in="coloredBlur"/>
        <feMergeNode in="SourceGraphic"/>
      </feMerge>
    </filter>
  </defs>
  
  <!-- Outer ring shadow -->
  <circle cx="102" cy="102" r="98" fill="#1a1a1a" opacity="0.5"/>
  
  <!-- Main dark circle -->
  <circle cx="100" cy="100" r="95" fill="url(#darkGradient)" stroke="#666" stroke-width="1"/>
  
  <!-- Inner darker circle -->
  <circle cx="100" cy="100" r="80" fill="#2f2f2f" opacity="0.8"/>
  
  <!-- Stylized cursive R -->
  <g transform="translate(100, 100)" filter="url(#glow)">
    <!-- Main curved body of R -->
    <path d="M -25 -35 
             Q -25 -45 -15 -45
             L 10 -45
             Q 25 -45 25 -25
             Q 25 -5 10 -5
             L -15 -5
             L -15 -2
             L 8 -2
             L 25 35
             L 15 35
             L 2 2
             L -15 2
             L -15 35
             L -25 35
             Z" 
          fill="#ffffff" 
          stroke="#ffffff" 
          stroke-width="0.5"/>
    
    <!-- Inner curve detail -->
    <path d="M -15 -35
             L -15 -15
             L 8 -15
             Q 15 -15 15 -25
             Q 15 -35 8 -35
             Z" 
          fill="#2f2f2f"/>
    
    <!-- Elegant connecting curve -->
    <path d="M -15 -8
             Q 5 -8 12 -3
             Q 15 0 12 2" 
          fill="none" 
          stroke="#ffffff" 
          stroke-width="1.5" 
          stroke-linecap="round"/>
  </g>
  
  <!-- Subtle highlight on the circle -->
  <circle cx="85" cy="85" r="15" fill="#ffffff" opacity="0.05"/>
  
</svg>